<svg xmlns="http://www.w3.org/2000/svg" viewBox="0 0 1600 600" fill="none">
  <defs>
    <linearGradient id="bg" x1="0" y1="0" x2="1600" y2="600" gradientUnits="userSpaceOnUse">
      <stop stop-color="#111A27"/>
      <stop offset="1" stop-color="#203244"/>
    </linearGradient>
    <radialGradient id="glow" cx="0" cy="0" r="1" gradientUnits="userSpaceOnUse" gradientTransform="translate(1320 80) rotate(135) scale(280 220)">
      <stop stop-color="#D8B78A" stop-opacity="0.34"/>
      <stop offset="1" stop-color="#D8B78A" stop-opacity="0"/>
    </radialGradient>
    <pattern id="grid" width="72" height="72" patternUnits="userSpaceOnUse">
      <path d="M72 0H0V72" stroke="white" stroke-opacity="0.07"/>
    </pattern>
  </defs>
  <rect width="1600" height="600" fill="url(#bg)"/>
  <rect width="1600" height="600" fill="url(#grid)"/>
  <rect width="1600" height="600" fill="url(#glow)"/>
  <path d="M80 430C220 360 330 330 470 330C640 330 720 410 890 410C1060 410 1150 300 1320 300C1410 300 1490 324 1560 350" stroke="#77BFD3" stroke-opacity="0.34" stroke-width="2"/>
  <path d="M80 470C250 470 330 390 470 390C620 390 700 470 870 470C1040 470 1120 360 1320 360C1420 360 1500 380 1560 400" stroke="#D8B78A" stroke-opacity="0.24" stroke-width="2"/>
</svg>
