<svg xmlns="http://www.w3.org/2000/svg" viewBox="0 0 1600 900" fill="none">
  <defs>
    <linearGradient id="bg" x1="0" y1="0" x2="1600" y2="900" gradientUnits="userSpaceOnUse">
      <stop stop-color="#0E1724"/>
      <stop offset="0.45" stop-color="#172433"/>
      <stop offset="1" stop-color="#1E3142"/>
    </linearGradient>
    <radialGradient id="glowA" cx="0" cy="0" r="1" gradientUnits="userSpaceOnUse" gradientTransform="translate(320 240) rotate(35) scale(360 220)">
      <stop stop-color="#67B7CC" stop-opacity="0.62"/>
      <stop offset="1" stop-color="#67B7CC" stop-opacity="0"/>
    </radialGradient>
    <radialGradient id="glowB" cx="0" cy="0" r="1" gradientUnits="userSpaceOnUse" gradientTransform="translate(1260 180) rotate(20) scale(300 220)">
      <stop stop-color="#D8B78A" stop-opacity="0.34"/>
      <stop offset="1" stop-color="#D8B78A" stop-opacity="0"/>
    </radialGradient>
    <pattern id="grid" width="64" height="64" patternUnits="userSpaceOnUse">
      <path d="M64 0H0V64" stroke="white" stroke-opacity="0.08"/>
    </pattern>
    <linearGradient id="line" x1="290" y1="0" x2="1310" y2="0" gradientUnits="userSpaceOnUse">
      <stop stop-color="#77BFD3" stop-opacity="0"/>
      <stop offset="0.5" stop-color="#77BFD3" stop-opacity="0.58"/>
      <stop offset="1" stop-color="#77BFD3" stop-opacity="0"/>
    </linearGradient>
  </defs>
  <rect width="1600" height="900" fill="url(#bg)"/>
  <rect width="1600" height="900" fill="url(#grid)"/>
  <rect width="1600" height="900" fill="url(#glowA)"/>
  <rect width="1600" height="900" fill="url(#glowB)"/>
  <g opacity="0.78">
    <path d="M290 210H1310" stroke="url(#line)"/>
    <path d="M290 280H1310" stroke="url(#line)" stroke-opacity="0.72"/>
    <path d="M290 350H1310" stroke="url(#line)" stroke-opacity="0.56"/>
    <path d="M290 420H1310" stroke="url(#line)" stroke-opacity="0.42"/>
  </g>
  <g opacity="0.92">
    <rect x="250" y="175" width="420" height="220" rx="24" fill="white" fill-opacity="0.04" stroke="white" stroke-opacity="0.12"/>
    <rect x="290" y="230" width="200" height="12" rx="6" fill="#EAF4F8" fill-opacity="0.74"/>
    <rect x="290" y="262" width="320" height="8" rx="4" fill="#9EC8D6" fill-opacity="0.58"/>
    <rect x="290" y="288" width="240" height="8" rx="4" fill="#9EC8D6" fill-opacity="0.38"/>
    <rect x="290" y="334" width="90" height="34" rx="17" fill="#B58D63" fill-opacity="0.34"/>
  </g>
  <g opacity="0.7">
    <circle cx="1180" cy="520" r="180" fill="#68A9BD" fill-opacity="0.10"/>
    <circle cx="1180" cy="520" r="120" stroke="#A6D5E0" stroke-opacity="0.24"/>
    <circle cx="1180" cy="520" r="72" stroke="#A6D5E0" stroke-opacity="0.28"/>
    <path d="M1040 520H1320" stroke="#A6D5E0" stroke-opacity="0.18"/>
    <path d="M1180 380V660" stroke="#A6D5E0" stroke-opacity="0.18"/>
  </g>
</svg>
